<svg xmlns="http://www.w3.org/2000/svg" version="1.1" xmlns:xlink="http://www.w3.org/1999/xlink" xmlns:svgjs="http://svgjs.dev/svgjs" viewBox="0 0 800 800"><defs><radialGradient id="ccclaymoji-grad-dark" r="93%" cx="20%" cy="20%">
      <stop offset="70%" stop-color="hsl(41, 100%, 67%)" stop-opacity="0"></stop>
      <stop offset="97%" stop-color="#c89924" stop-opacity="1"></stop>
    </radialGradient><radialGradient id="ccclaymoji-grad-light" r="65%" cx="28%" cy="20%">
    <stop offset="0%" stop-color="#fffd88" stop-opacity="0.75"></stop>
    <stop offset="100%" stop-color="hsl(41, 100%, 67%)" stop-opacity="0"></stop>
  </radialGradient><filter id="ccclaymoji-blur" x="-100%" y="-100%" width="400%" height="400%" filterUnits="objectBoundingBox" primitiveUnits="userSpaceOnUse" color-interpolation-filters="sRGB">
	<feGaussianBlur stdDeviation="30" x="0%" y="0%" width="100%" height="100%" in="SourceGraphic" edgeMode="none" result="blur"></feGaussianBlur></filter><filter id="inner-blur" x="-100%" y="-100%" width="400%" height="400%" filterUnits="objectBoundingBox" primitiveUnits="userSpaceOnUse" color-interpolation-filters="sRGB">
	<feGaussianBlur stdDeviation="2" x="0%" y="0%" width="100%" height="100%" in="SourceGraphic" edgeMode="none" result="blur"></feGaussianBlur></filter><filter id="eye-shadow" x="-100%" y="-100%" width="400%" height="400%" filterUnits="objectBoundingBox" primitiveUnits="userSpaceOnUse" color-interpolation-filters="sRGB">
	<feDropShadow stdDeviation="10" dx="10" dy="10" flood-color="#000000" flood-opacity="0.2" x="0%" y="0%" width="100%" height="100%" result="dropShadow"></feDropShadow>
</filter><linearGradient id="eye-light" x1="50%" y1="0%" x2="50%" y2="100%">
      <stop offset="0%" stop-color="#555555" stop-opacity="1"></stop>
      <stop offset="100%" stop-color="black" stop-opacity="0"></stop>
    </linearGradient><linearGradient id="mouth-light" x1="50%" y1="0%" x2="50%" y2="100%">
    <stop offset="0%" stop-color="#ff9667" stop-opacity="1"></stop>
    <stop offset="100%" stop-color="hsl(3, 100%, 51%)" stop-opacity="0"></stop>
  </linearGradient><filter id="mouth-shadow" x="-100%" y="-100%" width="400%" height="400%" filterUnits="objectBoundingBox" primitiveUnits="userSpaceOnUse" color-interpolation-filters="sRGB">
	<feDropShadow stdDeviation="10" dx="10" dy="10" flood-color="#c20000" flood-opacity="0.2" x="0%" y="0%" width="100%" height="100%" result="dropShadow"></feDropShadow>
</filter></defs><g stroke-linecap="round"><path d="M665.0000305175781 449.999986921038C665.0000305175781 612.1357012067523 562.1357448032925 743.5714154924666 400.0000305175781 743.5714154924666C237.86503051757813 743.5714154924666 135.00003051757812 612.1357012067523 135.00003051757812 449.999986921038C135.00003051757812 287.86498692103794 237.86503051757813 156.42855834960938 400.0000305175781 156.42855834960938C562.1357448032925 156.42855834960938 665.0000305175781 287.86498692103794 665.0000305175781 449.999986921038Z " fill="#c89924" opacity="0.25" filter="url(#ccclaymoji-blur)"></path><path d="M665 400.0000010868083C665 571.374217611025 571.3742165242165 649.9002859870932 400 649.9002859870932C228.62653846153847 649.9002859870932 135 571.374217611025 135 400.0000010868083C135 228.62653954834678 228.62653846153847 150.09971618652344 400 150.09971618652344C571.3742165242165 150.09971618652344 665 228.62653954834678 665 400.0000010868083Z " fill="hsl(41, 100%, 67%)"></path><path d="M665 400.0000010868083C665 571.374217611025 571.3742165242165 649.9002859870932 400 649.9002859870932C228.62653846153847 649.9002859870932 135 571.374217611025 135 400.0000010868083C135 228.62653954834678 228.62653846153847 150.09971618652344 400 150.09971618652344C571.3742165242165 150.09971618652344 665 228.62653954834678 665 400.0000010868083Z " fill="url(#ccclaymoji-grad-dark)"></path><path d="M665 400.0000010868083C665 571.374217611025 571.3742165242165 649.9002859870932 400 649.9002859870932C228.62653846153847 649.9002859870932 135 571.374217611025 135 400.0000010868083C135 228.62653954834678 228.62653846153847 150.09971618652344 400 150.09971618652344C571.3742165242165 150.09971618652344 665 228.62653954834678 665 400.0000010868083Z " fill="url(#ccclaymoji-grad-light)"></path><path d="M325 362.5Q375 412.5 375 362.5 " stroke-width="20" stroke="black" fill="none" filter="url(#eye-shadow)"></path><path d="M325 362.5Q375 412.5 375 362.5 " stroke-width="6.666666666666667" stroke="url(#eye-light)" fill="none" filter="url(#inner-blur)"></path><path d="M422 361.25Q472 416.25 478 361.25 " stroke-width="20" stroke="black" fill="none" filter="url(#eye-shadow)"></path><path d="M422 361.25Q472 416.25 478 361.25 " stroke-width="6.666666666666667" stroke="url(#eye-light)" fill="none" filter="url(#inner-blur)"></path><path d="M350 512.5Q400 562.5 450 512.5 " stroke-width="20" stroke="hsl(3, 100%, 51%)" fill="none" filter="url(#mouth-shadow)"></path><path d="M350 512.5Q400 562.5 450 512.5 " stroke-width="6.666666666666667" stroke="url(#mouth-light)" fill="none" filter="url(#inner-blur)"></path></g></svg>